<?xml version="1.0" encoding="UTF-8"?>
<svg width="44px" height="55px" viewBox="0 0 44 55" version="1.1" xmlns="http://www.w3.org/2000/svg" xmlns:xlink="http://www.w3.org/1999/xlink">
    <!-- Generator: Sketch 39.1 (31720) - http://www.bohemiancoding.com/sketch -->
    <title>Combined Shape</title>
    <desc>Created with Sketch.</desc>
    <defs></defs>
    <g id="Page-1" stroke="none" stroke-width="1" fill="none" fill-rule="evenodd">
        <path d="M30.3688813,25.5552959 C33.2067484,22.9887883 35,19.2115685 35,15 C35,7.2680135 28.9558441,1 21.5,1 C14.0441559,1 8,7.2680135 8,15 C8,19.5503365 10.0933435,23.593638 13.3358183,26.1507214 C12.4493918,26.7003115 11.5085552,27.3056688 10.5000002,27.9622584 C0.500000233,34.4724595 2,54.0030627 2,54.0030627 L40.0027084,54.0030627 C41.1084602,54.0030627 42.0192491,53.116014 42.042994,52.0217839 C42.042994,52.0217839 43.1574355,35.9459848 33.5000002,27.9622583 C32.3778131,27.034555 31.3408911,26.2345461 30.3688813,25.5552959 Z" id="Combined-Shape" stroke="#909090" stroke-width="2" fill="#FFFFFF"></path>
    </g>
</svg>